<svg id="DESIGN" xmlns="http://www.w3.org/2000/svg" viewBox="0 0 120 120"><defs><style>.cls-1{fill:#ef928e;}.cls-2,.cls-3{fill:none;stroke:#00365f;stroke-linecap:round;stroke-linejoin:round;}.cls-2{stroke-width:0.5px;}</style></defs><title>BiocICON_targeted copy 2</title><path class="cls-1" d="M46.56,53.13C54.81,61,68,60.24,76,52.45s8.51-21,.37-29a21.66,21.66,0,0,0-30.18.17A20.77,20.77,0,0,0,46.56,53.13Z"/><path class="cls-1" d="M73.88,69q0,3.33.05,6.67a54.12,54.12,0,0,1,6.53,12.4c.9,2.59,1.59,5.47.51,8.1s-3.91,2.43-6.18,1.88c-3.32-.81-1.94-6.13,1.34-5.47a9.57,9.57,0,0,0-.3-1.39,31.92,31.92,0,0,0-2.39-5.79c-.69-1.3-1.41-2.6-2.16-3.85-.75,1.27-1.45,2.56-2.12,3.88a28,28,0,0,0-2.55,6.34c-.06.23-.14.53-.2.84,3.29-.72,4.65,4.63,1.3,5.44-2.57.62-5.58.65-6.4-2.55-.69-2.67.13-5.46,1.08-8a61.51,61.51,0,0,1,6.18-11.79c0-2.71-.06-5.4-.09-8.09,0,0,0,0,0-.08A40.72,40.72,0,0,0,61.78,67a38.75,38.75,0,0,0-7.53.71c0,.12.07.22.07.35.07,4,.14,8.08.18,12.15a6.18,6.18,0,0,1,3.56,4.61,2.51,2.51,0,0,1,.13,1A2.8,2.8,0,0,1,58.05,87c-.63,3-3.06,5.56-6.21,5.44s-6.63-2.63-6.44-6.27a7.08,7.08,0,0,1,3.71-5.88q-.06-5.52-.17-11C37.46,73.74,31.84,84.41,32,96.69c0,0,9.92,5.87,29.69,5.87S91.5,96.69,91.5,96.69C91.67,84.09,85.83,73.28,73.88,69Z"/><path class="cls-2" d="M51.53,67.65a41.62,41.62,0,0,1,14.2,0"/><path class="cls-3" d="M71.13,69.12C82.82,73.49,88.5,84.23,88.34,96.69c0,0-10,5.87-29.78,5.87s-29.69-5.87-29.69-5.87C28.68,84.28,34.4,73.5,46.13,69.12"/><path class="cls-3" d="M43.81,53.13c8.25,7.9,21.41,7.11,29.41-.68s8.51-21,.37-29a21.66,21.66,0,0,0-30.18.17A20.77,20.77,0,0,0,43.81,53.13Z"/><path class="cls-3" d="M55.31,84.86a6.18,6.18,0,0,0-3.56-4.61c0-4.07-.11-8.11-.18-12.15-.06-3.51-5.46-3.4-5.4.12q.12,6,.19,12a7.11,7.11,0,0,0-3.71,5.89c-.19,3.64,3.2,6.15,6.44,6.27S54.67,90,55.3,87a2.8,2.8,0,0,0,.14-1.12A2.51,2.51,0,0,0,55.31,84.86Z"/><path class="cls-3" d="M77.71,88.08a54.12,54.12,0,0,0-6.53-12.4l-.06-8.12c0-3.52-5.43-3.41-5.39.11,0,2.69.07,5.38.09,8.09a61.51,61.51,0,0,0-6.18,11.79c-.94,2.5-1.77,5.29-1.08,8,.82,3.2,3.83,3.17,6.4,2.55,3.35-.81,2-6.16-1.3-5.44.06-.31.14-.61.2-.84a28,28,0,0,1,2.55-6.34c.67-1.32,1.37-2.61,2.12-3.88.75,1.25,1.47,2.55,2.16,3.85a31.92,31.92,0,0,1,2.39,5.79,9.86,9.86,0,0,1,.3,1.39c-3.28-.66-4.66,4.66-1.34,5.47,2.27.55,5.08.8,6.18-1.88S78.61,90.67,77.71,88.08Z"/></svg>