<svg id="DESIGN" xmlns="http://www.w3.org/2000/svg" viewBox="0 0 120 120"><defs><style>.cls-1{fill:#ef928e;}.cls-2,.cls-3{fill:none;stroke:#00365f;stroke-linecap:round;stroke-linejoin:round;}.cls-3{stroke-width:0.5px;}</style></defs><title>BiocICON_about-3</title><path class="cls-1" d="M85.16,69.15a25.44,25.44,0,0,0,4.77-18.37c-1.88-14.34-15.57-24.37-30.57-22.4S33.72,43.55,35.6,57.9a25.42,25.42,0,0,0,7.28,14.68h0l0,0c.27.27.54.52.82.78,3.19,2.48,8.9,9.31,9.56,16.3,0,0,0,5,5.68,4.61l8.79-1.15L76.56,92c5.63-1.13,4.3-5.92,4.3-5.92C79.83,80,82.56,72.77,85.16,69.15Z"/><path class="cls-2" d="M55.13,103a4.9,4.9,0,0,0,5.61,4.53h0l13-1.71A4.89,4.89,0,0,0,78,100"/><path class="cls-2" d="M50.11,95.79C49,99.05,51,103.55,55.45,103h0l22-2.88c4.43-.58,5.26-5.46,3.32-8.31"/><path class="cls-2" d="M50.73,88.65c-3.26,2.89-1.4,9.86,4,9.14h0l22-2.87c5.33-.7,5.44-7.64,1.77-9.75"/><path class="cls-2" d="M82.36,67a25.46,25.46,0,0,0,4.76-18.36C85.24,34.28,71.55,24.26,56.56,26.22S30.92,41.4,32.8,55.75a25.33,25.33,0,0,0,7.28,14.67h0l0,0c.27.27.54.52.81.77,3.19,2.49,8.91,9.31,9.57,16.31,0,0,0,5,5.68,4.61L65,91l8.79-1.16c5.63-1.12,4.29-5.91,4.29-5.91C77,77.85,79.75,70.61,82.36,67Z"/><line class="cls-2" x1="28.02" y1="56.69" x2="20.4" y2="57.69"/><line class="cls-2" x1="99.6" y1="47.31" x2="91.98" y2="48.31"/><line class="cls-2" x1="40.46" y1="78.24" x2="35.71" y2="84.51"/><line class="cls-2" x1="84.29" y1="20.48" x2="79.54" y2="26.76"/><line class="cls-2" x1="34.48" y1="32.66" x2="28.28" y2="27.82"/><line class="cls-3" x1="91.72" y1="77.17" x2="85.52" y2="72.34"/><line class="cls-2" x1="55.67" y1="19.49" x2="54.75" y2="12.41"/></svg>