<svg id="DESIGN" xmlns="http://www.w3.org/2000/svg" viewBox="0 0 120 120"><defs><style>.cls-1{fill:#ef928e;}.cls-2{fill:none;stroke:#00365f;stroke-linecap:round;stroke-linejoin:round;}</style></defs><title>BiocICON_about-4</title><path class="cls-1" d="M68.38,74.23c-1.5,11.51-2.16,23.07-5.67,34.43A45.22,45.22,0,0,0,58.79,100c-3.25,2.57-4.93,3.85-8.54,6.42C53,95.94,53.6,85.31,54.94,74.73l1.56-7.46,9.9-1.36Z"/><path class="cls-1" d="M78,69.07C82.78,79.85,89,90,93.81,100.9c-3.66-2-5.56-3-9.41-5A46.14,46.14,0,0,1,81,106.8c-3.34-10-8.35-19.16-13.13-28.46l-3.6-9.61,9.22-6.32Z"/><path class="cls-1" d="M87.8,40.91c7.92-4.19,4.68-12.24-4.07-9.46,5.7-6.79-.42-13.1-7.44-7.18,2.69-8.43-5.55-11.89-9.68-3.81-.79-8.89-9.79-8.77-10.45.13-4.25-8-12.43-4.31-9.61,4.06-7.11-5.73-13.15.72-7.34,7.36-8.79-2.55-11.9,5.57-3.92,9.57-9,1-9,9.57.08,10.29-7.91,4.2-4.68,12.24,4.07,9.46-5.71,6.79.42,13.09,7.44,7.19-2.69,8.42,5.54,11.88,9.68,3.82.8,8.87,9.79,8.76,10.45-.14,4.26,8,12.43,4.3,9.62-4.06,7.11,5.72,13.13-.73,7.33-7.37,8.79,2.56,11.89-5.56,3.92-9.56,4.88-.58,6.78-2.57,6.76-5.24S92.7,41.37,87.8,40.91Zm-6.23,5.23A20,20,0,0,1,61.73,66.08,19.7,19.7,0,0,1,41.61,46.65,20,20,0,0,1,61.43,26.7,19.73,19.73,0,0,1,81.57,46.14Z"/><path class="cls-2" d="M52.12,72.59c-1.34,10.58-1.93,21.22-4.69,31.73,3.61-2.58,5.3-3.86,8.54-6.43a44.61,44.61,0,0,1,3.92,8.63c3.52-11.36,4.17-22.91,5.67-34.43"/><path class="cls-2" d="M65.06,76.21c4.78,9.3,9.78,18.47,13.12,28.46a46,46,0,0,0,3.4-10.9c3.85,2,5.75,3,9.41,5C86.16,87.83,80,77.71,75.13,66.94"/><path class="cls-2" d="M91.82,43.83c0-2.67-1.93-4.6-6.83-5,7.91-4.2,4.67-12.25-4.07-9.46,5.69-6.79-.42-13.1-7.45-7.19,2.69-8.43-5.55-11.89-9.68-3.81C63,9.44,54,9.55,53.35,18.45c-4.26-8-12.44-4.3-9.62,4.06-7.11-5.73-13.14.73-7.33,7.37-8.8-2.56-11.9,5.57-3.93,9.56-9,1-9,9.58.08,10.3C24.64,53.93,27.87,62,36.62,59.2c-5.71,6.78.43,13.08,7.45,7.18-2.7,8.43,5.54,11.88,9.68,3.82.79,8.88,9.78,8.76,10.44-.14,4.26,8,12.44,4.3,9.62-4.06,7.11,5.73,13.14-.73,7.33-7.37,8.8,2.56,11.9-5.56,3.92-9.56C89.94,48.49,91.84,46.51,91.82,43.83Z"/><path class="cls-2" d="M78.75,44A20,20,0,0,1,58.91,64,19.71,19.71,0,0,1,38.79,44.51,20,20,0,0,1,58.61,24.56,19.73,19.73,0,0,1,78.75,44Z"/></svg>