<?xml version="1.0" encoding="utf-8"?>
<!-- Generator: Adobe Illustrator 22.1.0, SVG Export Plug-In . SVG Version: 6.00 Build 0)  -->
<svg version="1.1" id="Layer_1" xmlns="http://www.w3.org/2000/svg" xmlns:xlink="http://www.w3.org/1999/xlink" x="0px" y="0px"
	 viewBox="0 0 1105.4 349.5" style="enable-background:new 0 0 1105.4 349.5;" xml:space="preserve">
<style type="text/css">
	.bio_icon{fill:#FFFFFF;}
	.st1{fill:#F0948F;}
</style>
<g>
	<path class="bio_icon" d="M195.4,208.6c-2.7,0-4.9,0.9-6.7,2.6c-1.8,1.7-2.7,4-2.7,6.9v102c0,3,0.9,5.4,2.7,7.1c1.8,1.7,4.1,2.6,6.7,2.6
		h25.8c6.2,0,11.7-1.1,16.5-3.2c4.8-2.1,8.8-4.8,12.1-8.2c3.3-3.4,5.7-7.3,7.4-11.6c1.7-4.4,2.5-8.8,2.5-13.4c0-6.7-1.7-12.6-5-17.8
		c-3.3-5.2-7.5-8.9-12.6-11.1c9.1-4.8,13.6-13.3,13.6-25.4c0-4.1-0.8-8-2.4-11.7c-1.6-3.7-3.9-6.9-6.8-9.6
		c-2.9-2.7-6.4-4.9-10.5-6.5c-4-1.6-8.6-2.4-13.6-2.4H195.4L195.4,208.6z M205,273.8h16.1c3,0,5.7,0.5,8.1,1.5
		c2.4,1,4.4,2.4,6.1,4.1c1.7,1.7,2.9,3.7,3.8,5.9c0.9,2.2,1.3,4.5,1.3,6.8c0,2.3-0.5,4.6-1.5,6.8c-1,2.2-2.4,4.2-4.1,5.9
		c-1.7,1.7-3.7,3.1-6.1,4.2c-2.3,1.1-4.9,1.6-7.7,1.6H205V273.8L205,273.8z M205,227.8h17.3c4.2,0,7.6,1.2,10.1,3.7
		c2.5,2.5,3.8,5.7,3.8,9.6c0,4-1.2,7.3-3.7,9.8c-2.4,2.6-5.9,3.8-10.3,3.8H205V227.8L205,227.8z M275,210.4c-1.8,1.7-2.7,4-2.7,6.9
		v103.6c0,3,0.9,5.4,2.7,7.1c1.8,1.7,4.1,2.6,6.7,2.6c3,0,5.3-0.9,7.1-2.6c1.7-1.7,2.6-4.1,2.6-7.1V217.3c0-2.9-0.9-5.2-2.6-6.9
		c-1.7-1.7-4.1-2.6-7.1-2.6C279,207.8,276.8,208.7,275,210.4L275,210.4z M327.9,252c2.3-5.4,5.4-10.1,9.4-14.1c4-4,8.7-7.2,14.1-9.6
		c5.4-2.3,11.2-3.5,17.4-3.5c6.1,0,11.9,1.2,17.3,3.5c5.4,2.3,10.2,5.5,14.2,9.6c4,4,7.2,8.8,9.6,14.1c2.3,5.4,3.5,11.1,3.5,17.2
		c0,6.1-1.2,11.8-3.5,17.1c-2.3,5.3-5.5,10-9.6,14c-4,4-8.8,7.2-14.2,9.5c-5.4,2.3-11.2,3.5-17.3,3.5c-6.2,0-12-1.2-17.4-3.5
		c-5.4-2.3-10.1-5.5-14.1-9.5c-4-4-7.1-8.6-9.4-14c-2.3-5.3-3.4-11-3.4-17.1C324.5,263.1,325.6,257.3,327.9,252L327.9,252z
		 M310.3,294c3.3,7.7,7.8,14.3,13.6,20c5.7,5.7,12.4,10.2,20.1,13.5c7.7,3.3,15.9,4.9,24.7,4.9c8.8,0,17-1.6,24.7-4.9
		c7.7-3.3,14.4-7.8,20.2-13.5c5.8-5.7,10.3-12.4,13.6-20c3.3-7.7,5-15.9,5-24.8c0-8.8-1.7-17-5-24.7c-3.3-7.7-7.9-14.4-13.6-20.2
		c-5.8-5.8-12.5-10.3-20.2-13.6c-7.7-3.3-15.9-5-24.7-5c-8.8,0-17,1.7-24.7,5c-7.7,3.3-14.4,7.9-20.1,13.6
		c-5.7,5.8-10.2,12.5-13.6,20.2c-3.3,7.7-5,15.9-5,24.7C305.3,278,307,286.3,310.3,294L310.3,294z M483.2,210.6
		c-7.7,3.3-14.4,7.9-20.1,13.6c-5.7,5.8-10.2,12.5-13.6,20.2c-3.3,7.7-5,15.9-5,24.7c0,8.9,1.7,17.1,5,24.8
		c3.3,7.7,7.8,14.3,13.6,20c5.7,5.7,12.4,10.2,20.1,13.5c7.7,3.3,15.9,4.9,24.7,4.9c9.4,0,18.1-1.8,26-5.4
		c7.9-3.6,14.8-8.6,20.7-14.9c2-2.2,3-4.8,3-7.8c0-2.7-0.9-4.8-2.7-6.5c-1.8-1.7-4.2-2.5-7.1-2.5c-1.6,0-2.9,0.4-4.1,1.1
		c-1.2,0.7-2.2,1.6-3.1,2.7c-4.2,4.7-9.1,8.2-14.6,10.6c-5.5,2.4-11.6,3.6-18.2,3.6c-6.2,0-12-1.2-17.4-3.5
		c-5.4-2.3-10.1-5.5-14.1-9.5c-4-4-7.1-8.6-9.4-14c-2.3-5.3-3.4-11-3.4-17.1c0-6.1,1.1-11.8,3.4-17.2c2.3-5.4,5.4-10.1,9.4-14.1
		c4-4,8.7-7.2,14.1-9.6c5.4-2.3,11.2-3.5,17.4-3.5c6.7,0,12.8,1.3,18.4,3.9c5.6,2.6,10.5,6.2,14.7,10.9c0.6,0.7,1.3,1.4,2.3,2.1
		c1,0.7,2.6,1.1,4.7,1.1c2.9,0,5.2-0.9,7-2.6c1.8-1.7,2.7-4.1,2.7-7.1c0-1.6-0.3-2.8-0.8-3.7c-0.6-0.9-1.2-1.8-1.8-2.7
		c-5.8-6.4-12.7-11.6-20.9-15.4c-8.2-3.8-16.9-5.7-26.2-5.7C499.2,205.6,490.9,207.3,483.2,210.6L483.2,210.6z M583.4,208.6
		c-2.7,0-4.9,0.9-6.7,2.6c-1.8,1.7-2.7,4-2.7,6.9v102c0,3,0.9,5.4,2.7,7.1c1.8,1.7,4.1,2.6,6.7,2.6h48.2c2.9,0,5.2-0.9,6.9-2.6
		c1.7-1.7,2.6-4.1,2.6-7.1c0-2.9-0.9-5.2-2.6-6.9c-1.7-1.7-4-2.6-6.9-2.6h-38.6v-35.9h36.4c2.9,0,5.2-0.8,7-2.5c1.8-1.7,2.7-4,2.7-7
		c0-2.8-0.9-5-2.7-6.8c-1.8-1.8-4.1-2.7-7-2.7h-36.4v-27.9H631c2.8,0,5-0.9,6.7-2.7c1.7-1.8,2.6-4.1,2.6-7c0-2.9-0.9-5.2-2.6-6.9
		c-1.7-1.7-4-2.6-6.7-2.6H583.4L583.4,208.6z M674.4,252.9l40.1,71.9c1.1,2,2.5,3.5,4.2,4.4c1.7,0.9,3.4,1.4,5.3,1.4
		c2.3,0,4.5-0.8,6.4-2.3c1.9-1.6,2.9-3.8,2.9-6.7V217.3c0-2.9-0.9-5.2-2.7-6.9c-1.8-1.7-4-2.6-6.8-2.6c-3,0-5.4,0.9-7.1,2.6
		c-1.7,1.7-2.6,4-2.6,6.9V285l-40.6-72.5c-0.9-1.7-2.1-2.9-3.7-3.6c-1.6-0.7-3.2-1.1-4.8-1.1c-2.4,0-4.7,0.8-6.7,2.5
		c-2.1,1.7-3.1,4.2-3.1,7.5v103.1c0,3,0.9,5.4,2.7,7.1c1.8,1.7,4.1,2.6,6.7,2.6c3,0,5.3-0.9,7.1-2.6c1.7-1.7,2.6-4.1,2.6-7.1V252.9
		L674.4,252.9z M754.6,208.6c-2.9,0-5.2,0.9-7,2.6c-1.8,1.7-2.7,4-2.7,6.9c0,2.9,0.9,5.2,2.7,7c1.8,1.8,4.1,2.7,7,2.7h19.8v93.1
		c0,3,0.9,5.4,2.6,7.1c1.7,1.7,4,2.6,6.7,2.6c2.9,0,5.2-0.9,7-2.6c1.8-1.7,2.7-4.1,2.7-7.1v-93.1H813c2.8,0,5-0.9,6.8-2.7
		c1.8-1.8,2.7-4.1,2.7-7c0-2.9-0.9-5.2-2.7-6.9c-1.8-1.7-4-2.6-6.8-2.6H754.6L754.6,208.6z M896,324.1c0.9,2.4,2.1,4.1,3.7,5.1
		c1.6,0.9,3.3,1.4,5.2,1.4c2.5,0,4.8-0.9,6.8-2.7c2-1.8,3-4.1,3-7c0-0.7-0.1-1.3-0.2-1.8c-0.1-0.6-0.3-1.1-0.5-1.7L876,214
		c-0.8-2.1-2-3.7-3.6-4.7c-1.6-1-3.5-1.5-5.6-1.5c-4.5,0-7.5,2.1-9,6.2l-37.9,103.8c-0.4,1.2-0.7,2.4-0.7,3.7c0,3,1.1,5.3,3.2,6.8
		c2.1,1.6,4.3,2.3,6.5,2.3c2.2,0,4.1-0.5,5.6-1.5c1.5-1,2.7-2.7,3.6-5l9.3-26.1h39.3L896,324.1L896,324.1z M867,244.6l13.3,36.4
		h-26.6L867,244.6L867,244.6z M941.5,217.3c0-2.9-0.9-5.2-2.6-6.9c-1.7-1.7-4.1-2.6-7.1-2.6c-2.7,0-4.9,0.9-6.7,2.6
		c-1.8,1.7-2.7,4-2.7,6.9v71.9c0,5.9,0.9,11.4,2.8,16.5c1.9,5.2,4.6,9.6,8.1,13.4c3.5,3.8,7.7,6.7,12.7,8.9c5,2.2,10.6,3.2,16.8,3.2
		c6.2,0,11.8-1.1,16.8-3.2c5-2.2,9.2-5.1,12.7-8.9c3.5-3.8,6.2-8.2,8-13.4c1.8-5.2,2.7-10.7,2.7-16.5v-71.9c0-2.9-0.9-5.2-2.6-6.9
		c-1.7-1.7-4-2.6-6.9-2.6c-3,0-5.4,0.9-7.1,2.6c-1.7,1.7-2.6,4-2.6,6.9v71.9c0,3.2-0.5,6.2-1.4,9.1c-0.9,2.8-2.3,5.3-4.2,7.4
		c-1.8,2.1-4,3.7-6.7,4.9c-2.6,1.2-5.6,1.7-8.9,1.7c-3.3,0-6.3-0.6-8.9-1.7c-2.6-1.2-4.8-2.8-6.7-4.9c-1.8-2.1-3.2-4.6-4.2-7.4
		c-1-2.8-1.5-5.8-1.5-9.1V217.3L941.5,217.3z M1028.5,208.6c-2.7,0-4.9,0.9-6.7,2.6c-1.8,1.7-2.7,4-2.7,6.9v102.8
		c0,3,0.9,5.4,2.7,7.1c1.8,1.7,4.1,2.6,6.7,2.6c3,0,5.3-0.9,7.1-2.6c1.7-1.7,2.6-4.1,2.6-7.1v-37.1h10.3l23.1,41.4
		c1.1,2,2.4,3.4,3.8,4.2c1.4,0.8,3.1,1.2,4.8,1.2c2.4,0,4.6-0.9,6.6-2.6c1.9-1.7,2.9-3.9,2.9-6.6c0-1.7-0.5-3.5-1.5-5.5l-20.5-36.6
		c8.1-2.4,14.3-6.7,18.5-12.7c4.3-6,6.4-12.9,6.4-20.5c0-4.8-1-9.4-2.9-13.9c-1.9-4.5-4.6-8.5-8-12c-3.4-3.5-7.4-6.3-12.2-8.4
		c-4.7-2.1-9.8-3.2-15.4-3.2H1028.5L1028.5,208.6z M1038.2,227.8h16.1c2.7,0,5.2,0.5,7.6,1.6c2.4,1.1,4.4,2.4,6.2,4.1
		c1.7,1.7,3.1,3.6,4.1,5.8c1,2.2,1.5,4.5,1.5,6.8c0,2.4-0.5,4.8-1.5,7c-1,2.2-2.4,4.2-4.1,5.9c-1.7,1.7-3.8,3.1-6.2,4.2
		c-2.4,1.1-4.9,1.6-7.6,1.6h-16.1V227.8L1038.2,227.8z"/>
	<path class="st1" d="M79.7,202.4c0-5.9,4.8-10.8,10.8-10.8c5.9,0,10.8,4.8,10.8,10.8c0,5.9-4.8,10.8-10.8,10.8
		C84.5,213.1,79.7,208.3,79.7,202.4L79.7,202.4z"/>
	<path class="st1" d="M46,202.4c0-5.9,4.8-10.8,10.8-10.8s10.8,4.8,10.8,10.8c0,5.9-4.8,10.8-10.8,10.8S46,208.3,46,202.4L46,202.4z
		"/>
	<path class="st1" d="M113.4,202.4c0-5.9,4.8-10.8,10.8-10.8c5.9,0,10.8,4.8,10.8,10.8c0,5.9-4.8,10.8-10.8,10.8
		C118.2,213.1,113.4,208.3,113.4,202.4L113.4,202.4z"/>
	<path class="st1" d="M130.2,173.3c0-5.9,4.8-10.8,10.8-10.8c5.9,0,10.8,4.8,10.8,10.8c0,5.9-4.8,10.8-10.8,10.8
		C135.1,184.1,130.2,179.2,130.2,173.3L130.2,173.3z"/>
	<path class="st1" d="M29.4,173.3c0-5.9,4.8-10.8,10.8-10.8s10.8,4.8,10.8,10.8c0,5.9-4.8,10.8-10.8,10.8S29.4,179.2,29.4,173.3
		L29.4,173.3z"/>
	<path class="st1" d="M12.7,144.2c0-5.9,4.8-10.8,10.8-10.8s10.8,4.8,10.8,10.8c0,5.9-4.8,10.8-10.8,10.8S12.7,150.1,12.7,144.2
		L12.7,144.2z"/>
	<path class="st1" d="M147.1,144.2c0-5.9,4.8-10.8,10.8-10.8c5.9,0,10.8,4.8,10.8,10.8c0,5.9-4.8,10.8-10.8,10.8
		C151.9,155,147.1,150.1,147.1,144.2L147.1,144.2z"/>
	<path class="st1" d="M130.2,115.1c0-5.9,4.8-10.8,10.8-10.8c5.9,0,10.8,4.8,10.8,10.8c0,5.9-4.8,10.8-10.8,10.8
		C135.1,125.9,130.2,121.1,130.2,115.1L130.2,115.1z"/>
	<path class="st1" d="M29.4,115.1c0-5.9,4.8-10.8,10.8-10.8s10.8,4.8,10.8,10.8c0,5.9-4.8,10.8-10.8,10.8S29.4,121.1,29.4,115.1
		L29.4,115.1z"/>
	<path class="st1" d="M113.4,86c0-5.9,4.8-10.8,10.8-10.8c5.9,0,10.8,4.8,10.8,10.8c0,5.9-4.8,10.8-10.8,10.8
		C118.2,96.8,113.4,92,113.4,86L113.4,86z"/>
	<path class="st1" d="M79.7,86c0-5.9,4.8-10.8,10.8-10.8c5.9,0,10.8,4.8,10.8,10.8c0,5.9-4.8,10.8-10.8,10.8
		C84.5,96.8,79.7,92,79.7,86L79.7,86z"/>
	<path class="st1" d="M46,86c0-5.9,4.8-10.8,10.8-10.8S67.5,80.1,67.5,86c0,5.9-4.8,10.8-10.8,10.8S46,92,46,86L46,86z"/>
	<path class="st1" d="M180.4,144.2c0-5.9,4.8-10.8,10.8-10.8c5.9,0,10.8,4.8,10.8,10.8c0,5.9-4.8,10.8-10.8,10.8
		C185.2,155,180.4,150.1,180.4,144.2L180.4,144.2z"/>
	<path class="st1" d="M214.1,144.2c0-5.9,4.8-10.8,10.8-10.8c5.9,0,10.8,4.8,10.8,10.8c0,5.9-4.8,10.8-10.8,10.8
		C218.9,155,214.1,150.1,214.1,144.2L214.1,144.2z"/>
	<path class="st1" d="M230.9,115.1c0-5.9,4.8-10.8,10.8-10.8s10.8,4.8,10.8,10.8c0,5.9-4.8,10.8-10.8,10.8S230.9,121.1,230.9,115.1
		L230.9,115.1z"/>
	<path class="st1" d="M247.7,86c0-5.9,4.8-10.8,10.8-10.8c5.9,0,10.8,4.8,10.8,10.8c0,5.9-4.8,10.8-10.8,10.8
		C252.6,96.8,247.7,92,247.7,86L247.7,86z"/>
	<path class="st1" d="M230.9,57c0-5.9,4.8-10.8,10.8-10.8S252.5,51,252.5,57s-4.8,10.8-10.8,10.8S230.9,62.9,230.9,57L230.9,57z"/>
	<path class="st1" d="M130.1,57c0-5.9,4.8-10.8,10.8-10.8c5.9,0,10.8,4.8,10.8,10.8s-4.8,10.8-10.8,10.8
		C134.9,67.7,130.1,62.9,130.1,57L130.1,57z"/>
	<path class="st1" d="M214.1,27.9c0-5.9,4.8-10.8,10.8-10.8c5.9,0,10.8,4.8,10.8,10.8c0,5.9-4.8,10.8-10.8,10.8
		C218.9,38.6,214.1,33.8,214.1,27.9L214.1,27.9z"/>
	<path class="st1" d="M180.4,27.9c0-5.9,4.8-10.8,10.8-10.8c5.9,0,10.8,4.8,10.8,10.8c0,5.9-4.8,10.8-10.8,10.8
		C185.2,38.6,180.4,33.8,180.4,27.9L180.4,27.9z"/>
	<path class="st1" d="M146.7,27.9c0-5.9,4.8-10.8,10.8-10.8c5.9,0,10.8,4.8,10.8,10.8c0,5.9-4.8,10.8-10.8,10.8
		C151.5,38.6,146.7,33.8,146.7,27.9L146.7,27.9z"/>
</g>
</svg>
