<?xml version="1.0" encoding="UTF-8"?>
<svg width="26px" height="28px" viewBox="0 0 26 28" version="1.1" xmlns="http://www.w3.org/2000/svg" xmlns:xlink="http://www.w3.org/1999/xlink">
    <title>RGCC_Web-Icons_-26</title>
    <g id="Page-1" stroke="none" stroke-width="1" fill="none" fill-rule="evenodd">
        <g id="RGCC_Web-Icons_-26" fill="#A7B6C4" fill-rule="nonzero">
            <path d="M24.518413,27.8971304 L0.742456522,27.8971304 C0.406304348,27.8971304 0.13376087,27.624587 0.13376087,27.2884348 L0.13376087,8.16093478 C0.13376087,8.14526087 0.134369565,8.12943478 0.135586957,8.11406522 L0.135586957,5.45147826 C0.135586957,3.70756522 1.04086957,2.34134783 2.19647826,2.34134783 L23.0657609,2.34134783 C24.2218261,2.34134783 25.1272609,3.70756522 25.1272609,5.45147826 L25.1272609,27.2884348 C25.1272609,27.624587 24.8545652,27.8971304 24.518413,27.8971304 Z M1.35115217,26.6797391 L23.9097174,26.6797391 L23.9097174,8.76963043 L1.35115217,8.76963043 L1.35115217,26.6797391 Z M1.35297826,7.55223913 L23.9097174,7.55223913 L23.9097174,5.45147826 C23.9097174,4.31367391 23.4016087,3.55873913 23.0656087,3.55873913 L2.19647826,3.55873913 C1.86063043,3.55873913 1.35297826,4.31352174 1.35297826,5.45147826 L1.35297826,7.55223913 Z" id="Shape"></path>
            <g id="Group" transform="translate(6.391304, 0.000000)">
                <path d="M0.634869565,5.95913043 C0.298717391,5.95913043 0.026173913,5.68658696 0.026173913,5.35043478 L0.026173913,0.635478261 C0.026173913,0.299326087 0.298717391,0.0267826087 0.634869565,0.0267826087 C0.971021739,0.0267826087 1.24356522,0.299326087 1.24356522,0.635478261 L1.24356522,5.35043478 C1.24356522,5.68658696 0.971021739,5.95913043 0.634869565,5.95913043 Z" id="Path"></path>
                <path d="M11.8433913,5.95913043 C11.5072391,5.95913043 11.2346957,5.68658696 11.2346957,5.35043478 L11.2346957,0.635478261 C11.2346957,0.299326087 11.5072391,0.0267826087 11.8433913,0.0267826087 C12.1795435,0.0267826087 12.452087,0.299326087 12.452087,0.635478261 L12.452087,5.35043478 C12.452087,5.68658696 12.1795435,5.95913043 11.8433913,5.95913043 Z" id="Path"></path>
            </g>
        </g>
    </g>
</svg>