<?xml version="1.0" encoding="utf-8"?>
<!-- Generator: Adobe Illustrator 24.3.0, SVG Export Plug-In . SVG Version: 6.00 Build 0)  -->
<svg version="1.1" id="DESIGN" xmlns="http://www.w3.org/2000/svg" xmlns:xlink="http://www.w3.org/1999/xlink" x="0px" y="0px"
	 viewBox="0 0 120 120" style="enable-background:new 0 0 120 120;" xml:space="preserve">
<style type="text/css">
	.st0{fill:#00365F;}
</style>
<g>
	<path class="st0" d="M82.1,53.3c0-2.1,0-3.9-0.4-6c-0.4-4.2-3.2-7.4-7.4-8.1c-2.5-0.4-4.6-0.4-7-0.4c-4.2,0-8.8,0-13,0
		c-2.1,0-4.2,0-6.7,0.4c-3.9,0.7-6.3,2.8-7.4,6.3c-0.4,1.1-0.7,2.5-0.7,3.5c0,4.6-0.4,9.5,0,14c0,2.8,0,6,0.4,8.8
		c0.4,4.6,3.2,7.4,7.4,8.4c2.1,0.4,4.6,0.4,7,0.4c4.2,0,8.8,0,13,0c2.1,0,3.9,0,6-0.4c1.8-0.4,3.5-0.7,4.9-2.1
		c2.5-1.8,3.2-4.6,3.5-7.4c0.4-3.9,0.4-7.7,0.4-11.9l0,0C82.1,57.5,82.1,55.4,82.1,53.3 M60.7,73.3c-7.4,0-13.3-6-13.3-13.3
		s6-13,13.3-13s13,6,13,13.3C74,67.4,68.1,73.3,60.7,73.3 M74.7,49.5c-1.8,0-3.2-1.4-3.2-3.2s1.4-3.2,3.2-3.2s3.2,1.4,3.2,3.2
		C77.6,48.1,76.1,49.5,74.7,49.5"/>
	<path class="st0" d="M60.7,51.6c-4.6,0-8.8,3.9-8.8,8.8c0,4.6,3.9,8.8,8.8,8.8c4.6,0,8.8-3.9,8.8-8.4
		C69.5,55.4,65.6,51.6,60.7,51.6"/>
	<path class="st0" d="M60,9.1C31.9,9.1,9.1,31.9,9.1,60s22.8,50.9,50.9,50.9s50.9-22.8,50.9-50.9S88.1,9.1,60,9.1 M86.7,68.1
		c0,2.8,0,5.3-1.1,8.1c-1.8,4.9-5.3,8.1-10.5,9.1c-2.5,0.4-4.9,0.7-7,0.7c-5.3,0-10.2,0-15.4,0c-2.8,0-5.3,0-8.1-1.1
		c-4.9-1.8-8.1-5.3-9.1-10.5c-0.4-2.5-0.7-4.9-0.7-7c0-5.3,0-10.2,0-15.4c0-2.8,0.4-5.3,1.1-8.1c1.8-4.9,5.3-8.1,10.5-9.1
		c2.5-0.4,4.9-0.4,7.4-0.7c2.5,0,4.2,0,7.7,0l0,0c3.5,0,6.3,0,9.8,0.4c3.2,0,5.6,0.7,8.1,2.1c3.5,2.1,5.6,5.3,6.3,9.1
		c0.4,2.5,0.7,4.9,0.7,7C86.7,57.9,86.7,63.2,86.7,68.1"/>
</g>
</svg>
