<svg enable-background="new 0 0 45.4 45.4" viewBox="0 0 52.4 48.4" xmlns="http://www.w3.org/2000/svg"><path clip-rule="evenodd" d="m22.7 0c-12.5 0-22.7 10.2-22.7 22.7s10.2 22.7 22.7 22.7 22.7-10.2 22.7-22.7-10.2-22.7-22.7-22.7zm-10.9 17.8h5.2v15.4h-5.1v-15.4zm5.5-4.7c0-1.5-1.1-2.7-2.9-2.7s-2.9 1.2-2.9 2.7 1.1 2.7 2.8 2.7c1.9-.1 3-1.3 3-2.7zm12.3 4.4c3.4 0 5.9 2.2 5.9 7v8.9h-5.1v-8.4c0-2.1-.7-3.5-2.6-3.5-1.4 0-2.3 1-2.6 1.9-.2.3-.2.8-.2 1.3v8.6h-5.1s.1-14 0-15.4h5.1v2.1c.6-1 1.9-2.5 4.6-2.5z" fill="#fff" fill-rule="evenodd"/></svg>
