<?xml version="1.0" encoding="utf-8"?>
<!-- Generator: Adobe Illustrator 24.3.0, SVG Export Plug-In . SVG Version: 6.00 Build 0)  -->
<svg version="1.1" id="DESIGN" xmlns="http://www.w3.org/2000/svg" xmlns:xlink="http://www.w3.org/1999/xlink" x="0px" y="0px"
	 viewBox="0 0 120 120" style="enable-background:new 0 0 120 120;" xml:space="preserve">
<style type="text/css">
	.st0{fill-rule:evenodd;clip-rule:evenodd;fill:#00365F;}
</style>
<path class="st0" d="M60,9.1C32,9.1,9.1,32,9.1,60S32,110.9,60,110.9S110.9,88,110.9,60S88,9.1,60,9.1z M35.6,49h11.7v34.5H35.8V49
	H35.6z M47.9,38.5c0-3.4-2.5-6.1-6.5-6.1s-6.5,2.7-6.5,6.1s2.5,6.1,6.3,6.1l0,0C45.4,44.3,47.9,41.6,47.9,38.5z M75.5,48.3
	c7.6,0,13.2,4.9,13.2,15.7v20H77.3V65.2c0-4.7-1.6-7.8-5.8-7.8c-3.1,0-5.2,2.2-5.8,4.3c-0.4,0.7-0.4,1.8-0.4,2.9v19.3H53.7
	c0,0,0.2-31.4,0-34.5h11.4v4.7C66.5,51.7,69.4,48.3,75.5,48.3z"/>
</svg>
