<?xml version="1.0" encoding="UTF-8"?>
<svg width="46px" height="46px" viewBox="0 0 46 46" version="1.1" xmlns="http://www.w3.org/2000/svg" xmlns:xlink="http://www.w3.org/1999/xlink">
    <title>linkedin_icon</title>
    <g id="Page-1" stroke="none" stroke-width="1" fill="none" fill-rule="evenodd">
        <g id="linkedin_icon" fill="#FFFFFF">
            <path d="M22.7,0 C10.2,0 0,10.2 0,22.7 C0,35.2 10.2,45.4 22.7,45.4 C35.2,45.4 45.4,35.2 45.4,22.7 C45.4,10.2 35.2,0 22.7,0 Z M12.9217391,19.5130435 L17.2173913,19.5130435 L17.2173913,32.2347826 L13.0043478,32.2347826 L13.0043478,19.5130435 L12.9217391,19.5130435 Z M17.4652174,15.6304348 C17.4652174,14.3913043 16.5565217,13.4 15.0695652,13.4 C13.5826087,13.4 12.673913,14.3913043 12.673913,15.6304348 C12.673913,16.8695652 13.5826087,17.8608696 14.9869565,17.8608696 L14.9869565,17.8608696 C16.5565217,17.7782609 17.4652174,16.7869565 17.4652174,15.6304348 Z M27.626087,19.2652174 C30.4347826,19.2652174 32.5,21.0826087 32.5,25.0478261 L32.5,32.4 L28.2869565,32.4 L28.2869565,25.4608696 C28.2869565,23.726087 27.7086957,22.5695652 26.1391304,22.5695652 C24.9826087,22.5695652 24.2391304,23.3956522 23.9913043,24.1391304 C23.826087,24.3869565 23.826087,24.8 23.826087,25.2130435 L23.826087,32.3173913 L19.6130435,32.3173913 C19.6130435,32.3173913 19.6956522,20.7521739 19.6130435,19.5956522 L23.826087,19.5956522 L23.826087,21.3304348 C24.3217391,20.5043478 25.3956522,19.2652174 27.626087,19.2652174 Z" id="Shape"></path>
        </g>
    </g>
</svg>