<svg id="DESIGN" xmlns="http://www.w3.org/2000/svg" viewBox="0 0 120 120"><defs><style>.order-1{fill:#ef928e;}.order-2{fill:none;stroke:#00365f;stroke-linecap:round;stroke-linejoin:round;}</style></defs><path class="order-1" d="M98,23.52H23.7A4.69,4.69,0,0,0,19,28.2V79.08a4.7,4.7,0,0,0,4.68,4.69H55.44v6.51S44.7,93.05,44.7,98q16.14.3,32.26,0c0-5-10.74-7.71-10.74-7.71V83.77H98a4.7,4.7,0,0,0,4.69-4.69V28.2A4.69,4.69,0,0,0,98,23.52ZM95.65,73A2.89,2.89,0,0,1,93,76H28.64A2.84,2.84,0,0,1,26,73V32.7A2.62,2.62,0,0,1,28.64,30H93a2.62,2.62,0,0,1,2.63,2.67Z"/><path class="order-2" d="M53.78,82.12v6.51s-10.73,2.77-10.73,7.7c10.76.21,21.49.21,32.26,0,0-5-10.75-7.7-10.75-7.7V82.12"/><rect class="order-2" x="17.36" y="21.86" width="83.62" height="60.25" rx="4.69" ry="4.69"/><path class="order-2" d="M94,71.38a2.89,2.89,0,0,1-2.63,2.93H27a2.84,2.84,0,0,1-2.63-2.93V31A2.61,2.61,0,0,1,27,28.38H91.37A2.61,2.61,0,0,1,94,31Z"/></svg>