<svg id="DESIGN" xmlns="http://www.w3.org/2000/svg" viewBox="0 0 120 120"><defs><style>.cls-1{fill:#ef928e;}.cls-2{fill:none;stroke:#00365f;stroke-linecap:round;stroke-linejoin:round;}</style></defs><title>BiocICON_order-clinician</title><path class="cls-1" d="M26,88.93a10.21,10.21,0,1,1,6.74.18h0a15.51,15.51,0,0,0,11.75,11.4C51.93,102.26,60.6,98.9,62.84,91c1.9-8,3.46-16.09,4.89-24.18a28.09,28.09,0,0,1-11.52-6.27c-3.26-3.14-4.8-6.06-5.08-9.72a25.87,25.87,0,0,1,.69-7.14l.07-.3c.67-3.42,1.45-6.87,2.26-10.2,1.13-4.63,2.41-9.41,3.77-14.13l.13-.47c.38-1.3.57-1.94,1-3.24a5.56,5.56,0,0,1,3.07-.14l3.75.9c2.31.55,3.74,2.43,3.22,4.21-.46,1.58-2.32,2.54-4.38,2.34C63.55,26.8,62.48,31,61.52,35c-.79,3.32-1.54,6.75-2.2,10.13,0,.12,0,.18-.06.31a21.6,21.6,0,0,0-.59,5.66c.16,2,.92,3.43,2.87,5.31,2.26,2.19,5.59,3.73,10.48,4.85s8.5,1.19,11.32.18c2.44-.86,3.62-1.82,4.47-3.62a21.42,21.42,0,0,0,1.45-5.45l0-.31c.61-3.36,1.22-6.8,1.84-10.13.77-4.07,1.62-8.25,2.65-12.4-1.93-.74-3.13-2.4-2.7-4,.46-1.77,2.75-2.76,5.09-2.21l3.78.89a5.12,5.12,0,0,1,2.63,1.48c-.27,1-.4,1.49-.66,2.48h0c-1.37,5.1-2.42,10.34-3.35,15.4-.62,3.35-1.21,6.8-1.82,10.22,0,.11,0,.17-.06.29a25.84,25.84,0,0,1-1.87,6.85c-1.53,3.24-3.94,5.25-8,6.69-3.47,1.24-7.57,1.47-12.46.71-1.45,8.11-3,16.2-5,24.2-3,11.35-16.12,16.16-26.62,13.68-8.37-2-15.35-8.71-16.78-17.27Z"/><path class="cls-2" d="M24,87.05a10.23,10.23,0,1,1,6.74.17h0A15.54,15.54,0,0,0,42.48,98.63C49.93,100.37,58.6,97,60.84,89.1c1.9-8,3.46-16.09,4.89-24.18a28,28,0,0,1-11.52-6.26c-3.26-3.14-4.8-6.06-5.08-9.73a25.87,25.87,0,0,1,.69-7.14c0-.11,0-.18.07-.29.67-3.42,1.45-6.88,2.26-10.2,1.13-4.63,2.41-9.41,3.77-14.14l.13-.47c.38-1.29.57-1.94,1-3.24a5.56,5.56,0,0,1,3.07-.13l3.75.89c2.31.55,3.74,2.44,3.22,4.22C66.6,20,64.74,21,62.68,20.76c-1.13,4.15-2.2,8.31-3.16,12.33-.79,3.32-1.54,6.75-2.2,10.13,0,.12,0,.19-.06.31a21.64,21.64,0,0,0-.59,5.66c.16,2,.92,3.44,2.87,5.32,2.26,2.18,5.59,3.72,10.48,4.85s8.5,1.19,11.32.18c2.44-.87,3.62-1.82,4.47-3.62a21.5,21.5,0,0,0,1.45-5.46l0-.31c.61-3.36,1.22-6.8,1.84-10.13.77-4.07,1.62-8.25,2.65-12.4-1.93-.73-3.13-2.4-2.7-4,.46-1.77,2.75-2.76,5.09-2.21l3.78.89a5.26,5.26,0,0,1,2.63,1.48c-.27,1-.4,1.49-.66,2.49h0c-1.37,5.09-2.42,10.33-3.35,15.39C96,45,95.39,48.48,94.78,51.89c0,.12,0,.17-.06.29A25.73,25.73,0,0,1,92.85,59c-1.53,3.25-3.94,5.25-8,6.69-3.47,1.24-7.57,1.47-12.46.71-1.45,8.11-3,16.2-5,24.21-3,11.34-16.12,16.15-26.62,13.67-8.37-2-15.35-8.7-16.78-17.26Z"/><circle class="cls-2" cx="27.61" cy="77.49" r="5.03"/></svg>