<svg xmlns="http://www.w3.org/2000/svg" width="180" height="180" viewBox="0 0 180 180">
  <defs>
    <radialGradient id="paldi_round-a" cx="53.723%" cy="10.321%" r="91.452%" fx="53.723%" fy="10.321%" gradientTransform="matrix(.40777 0 0 1 .318 0)">
      <stop offset="0%" stop-color="#CF3347"/>
      <stop offset="100%" stop-color="#EE928F"/>
    </radialGradient>
  </defs>
  <g fill="none">
    <circle cx="90" cy="90" r="90" fill="#FBDFDD"/>
    <path fill="url(#paldi_round-a)" d="M38,82.7431326 C69.5294638,115.230371 107.531387,123.32405 141,93.4090555 C128.764115,92.2557091 121.723303,93.8658933 117.047061,84.9778116 C112.364066,76.0773526 106.593888,71.6721318 92.1093543,70.3027438 C77.6304483,68.9378568 71.0105552,72.188606 64.6089992,80.0437392 C58.1995651,87.8808691 52.0050918,84.0652614 38,82.7431326 Z"/>
    <path fill="#15385C" d="M142.235252,93 C142.210625,93 142.187117,92.9988721 142.162489,92.9966164 C139.87661,92.7789407 137.816857,92.660516 135.825389,92.5477307 C127.319949,92.0638814 121.700404,91.7435709 117.726423,84.1373253 C113.453553,75.9412122 108.331036,71.2346786 93.5299148,69.83614 C78.6862554,68.4240671 72.6961784,72.0749296 66.8415526,79.3134949 C61.6832131,85.6734621 56.6301001,84.8918595 48.2545149,83.5948277 C45.7593025,83.2091017 42.9293801,82.7714945 39.6931041,82.4624625 C39.2721979,82.4218598 38.9632349,82.0462845 39.0035344,81.6222115 C39.043834,81.1981385 39.4266795,80.8902344 39.8375108,80.9274536 C43.118564,81.2409969 45.970875,81.6819878 48.4873566,82.0722251 C56.5886811,83.3241428 61.0518538,84.0155171 65.6560748,78.3390293 C71.6987651,70.8658704 78.2216914,66.8258983 93.673202,68.301131 C109.09001,69.758318 114.663659,74.9487009 119.080935,83.4200104 C122.651921,90.2536762 127.642346,90.5378953 135.911585,91.0082103 C137.823573,91.1176121 139.991912,91.2405482 142.306896,91.4616075 C142.727802,91.5022102 143.036765,91.8777855 142.996466,92.3018585 C142.958405,92.6999909 142.624814,93 142.235252,93 Z"/>
  </g>
</svg>
