<svg id="DESIGN" xmlns="http://www.w3.org/2000/svg" viewBox="0 0 120 120"><defs><style>.cls-1{fill:#ef928e;}.cls-2{fill:none;stroke:#00365f;stroke-linecap:round;stroke-linejoin:round;}</style></defs><title>BiocICON_condition-alzheimers</title><path class="cls-1" d="M98.19,69l-.54.31c5.92-5,3.93-15.18-2.18-16.3,1.47-1.17,2.31-3.81,2.31-6.13a10,10,0,0,0-7.39-9.41,9.62,9.62,0,0,0-1.76-7,9.15,9.15,0,0,0-6.72-3.12c-.76-3-3.25-7.17-10.73-7.17-8.32,0-10,8.77-10,8.77s-1.65-8.77-10-8.77c-7.48,0-10,4.19-10.73,7.17a9.19,9.19,0,0,0-6.72,3.12,9.65,9.65,0,0,0-1.75,7,10,10,0,0,0-7.39,9.41c0,2.32.83,5,2.3,6.13-6.1,1.12-8.09,11.31-2.17,16.3L24.21,69c-2.5.76-5.82,9.15,1.25,13.35-2.5,13.34,11,13.36,11,13.36a13.25,13.25,0,0,0,11.61,6.47c7.23,0,13.09-5.38,13.09-12,0,6.63,5.87,12,13.09,12a13.28,13.28,0,0,0,11.62-6.47s13.53,0,11-13.36C104,78.17,100.69,69.78,98.19,69Z"/><path class="cls-2" d="M59.17,88.15c0,6.64-5.86,12-13.09,12A13.29,13.29,0,0,1,34.46,93.7s-13.53,0-11-13.37C16.36,76.14,19.68,67.75,22.18,67"/><path class="cls-2" d="M44.21,44.87c0-5.48-4.84-9.91-10.81-9.91s-10.81,4.43-10.81,9.91c0,2.31.83,5,2.32,6.13-8.14,1.5-9,19,6.41,19"/><path class="cls-2" d="M30,35.46a9.68,9.68,0,0,1,1.76-7c2.55-3.12,8.73-4.95,14.55-.38"/><path class="cls-2" d="M38.46,25.35c.76-3,3.25-7.17,10.73-7.17,8.33,0,10,8.77,10,8.77V88"/><path class="cls-2" d="M33.82,46.75c0,6.86,5.4,14.49,19.12,8.38"/><path class="cls-2" d="M44.21,57.36s2.08,7.31-7.9,7.69"/><path class="cls-2" d="M50,76s-10.4-.76-15,8.39"/><path class="cls-2" d="M59.17,88.15c0,6.64,5.86,12,13.09,12A13.29,13.29,0,0,0,83.88,93.7s13.53,0,11-13.37C102,76.14,98.66,67.75,96.16,67"/><path class="cls-2" d="M74.13,44.87C74.13,39.39,79,35,84.94,35s10.81,4.43,10.81,9.91c0,2.31-.83,5-2.32,6.13,8.14,1.5,9,19-6.41,19"/><path class="cls-2" d="M88.36,35.46a9.68,9.68,0,0,0-1.76-7c-2.55-3.12-8.73-4.95-14.54-.38"/><path class="cls-2" d="M79.88,25.35c-.76-3-3.25-7.17-10.73-7.17-8.33,0-10,8.77-10,8.77V88"/><path class="cls-2" d="M84.53,46.75c0,6.86-5.41,14.49-19.12,8.38"/><path class="cls-2" d="M74.13,57.36s-2.07,7.31,7.9,7.69"/><path class="cls-2" d="M68.31,76s10.4-.76,15,8.39"/></svg>