<svg id="DESIGN" xmlns="http://www.w3.org/2000/svg" viewBox="0 0 120 120"><defs><style>.cls-1{fill:#ef928e;}.cls-2{fill:none;stroke:#00365f;stroke-linecap:round;stroke-linejoin:round;}</style></defs><title>BiocICON_coronary-artery-disease</title><path class="cls-1" d="M89.85,56.19a20.57,20.57,0,0,1-2.27.14c1.45-2.56,0,0,1.45-2.58s-1.45-4.91-3.39-2.51c-1.24,1.54-2.49,3-3.72,4.52-.43-.42-.86-.84-1.27-1.26-2.35-2.41-4.62-5.6-7.49-7.41.43-.63.86-1.26,1.28-1.9a2.11,2.11,0,0,1,1.16-.95h.19c.18,0,.68-.1.77-.11l.26,0c2.15-.3,4.32-.63,6.53-1,4.16-.74,3.64-7.86-.54-7.16-1.5.26-3,.5-4.5.73-.92.14-1.84.24-2.74.4a3,3,0,0,1-2-.33,2.36,2.36,0,0,1-.26-.17c-.46-.33-.92-.68-1.39-1q-2-1.54-4.11-3.1c.78-1.2,1.5-2.47,2.26-3.68,2.45-3.91-3.08-8.78-5.42-4.77a47.65,47.65,0,0,1-3.2,5.32l0,.06h0l-.21.18c-2.06,1.19-4.51,1.34-6.51,2.56-.59.36-1.16.74-1.71,1.15-.26-1.49-.53-3-.83-4.51-.91-4.66-7.51-3.81-6.6.74.35,1.73.68,3.43,1,5.13.17.92.33,1.83.49,2.74,0,.13,0,.23,0,.29-.93.48-1.84.92-2.67,1.46-.23-.19-.46-.37-.7-.54-2.58-1.84-5.23-3.66-7.88-5.46-3.81-2.6-7.93,3-4,5.55,2.46,1.58,4.9,3.17,7.28,4.78,1.09.73,1.92,1,2.22,2A5.36,5.36,0,0,1,41.53,47c-.28,7.32-2.23,15-1.36,22.36a37.9,37.9,0,0,0,7,18.43A30.68,30.68,0,0,0,67.7,99.69c6.75.72,13.21.15,20.17-.85a4.46,4.46,0,0,0,3.38-4.92,6.17,6.17,0,0,0-.09-.62c-1.1-6.69-2.33-13.38-3.49-20-.56-3.25-1.09-6.52-1.61-9.76-.1-.62-.23-1.23-.38-1.81,1.49-.29,3-.6,4.56-1C93.19,60.08,92.77,56,89.85,56.19Z"/><path class="cls-2" d="M89.18,91.85a6.17,6.17,0,0,0-.09-.62c-1.1-6.69-2.33-13.38-3.49-20C85,68,84.51,64.69,84,61.45c-.1-.62-.23-1.23-.38-1.81,1.49-.29,3-.6,4.56-1,3-.68,2.53-4.76-.39-4.56-2.29.15-.25.07-2.27.13,1.45-2.56,0,0,1.45-2.58s-1.45-4.91-3.38-2.51c-1.25,1.54-2.5,3-3.73,4.52-.43-.42-.86-.83-1.27-1.26C76.23,50,74,46.83,71.09,45c.43-.63.86-1.26,1.28-1.9a2.15,2.15,0,0,1,1.16-.95h.19c.18,0,.68-.09.77-.11l.27,0c2.14-.3,4.32-.63,6.52-1,4.16-.74,3.64-7.86-.54-7.16-1.5.26-3,.5-4.49.73-.92.14-1.84.24-2.75.41a3,3,0,0,1-2-.34,2.36,2.36,0,0,1-.26-.17c-.46-.33-.92-.68-1.39-1q-2-1.54-4.11-3.1c.78-1.2,1.5-2.47,2.26-3.68,2.45-3.91-3.08-8.78-5.42-4.77a47.65,47.65,0,0,1-3.2,5.32l0,.06h0l-.2.18C57,28.61,54.59,28.76,52.59,30c-.59.35-1.15.73-1.71,1.14-.25-1.49-.53-3-.83-4.51-.91-4.65-7.51-3.81-6.6.74q.52,2.59,1,5.13c.17.92.33,1.83.49,2.74a2,2,0,0,0,0,.29A29.49,29.49,0,0,0,42.3,37c-.23-.19-.46-.37-.7-.54C39,34.61,36.38,32.78,33.72,31c-3.81-2.6-7.93,3.05-4,5.55,2.46,1.58,4.9,3.17,7.28,4.78,1.09.73,1.92,1,2.23,2A5.35,5.35,0,0,1,39.46,45c-.28,7.32-2.23,15-1.36,22.36a37.9,37.9,0,0,0,7,18.43A30.7,30.7,0,0,0,65.64,97.62a79.24,79.24,0,0,0,20.16-.85A4.45,4.45,0,0,0,89.18,91.85Z"/><path class="cls-2" d="M80.74,33.82c-4.17.71-3.63,7.91.54,7.16"/><path class="cls-2" d="M70.87,34.21c-5.78,1-5.31,9.9.22,10.81"/><path class="cls-2" d="M38.92,51.33c13.71,6.82,12.95-12.17,12-20.2"/><path class="cls-2" d="M79.85,53.69a24.15,24.15,0,0,1,3.76,6"/><path class="cls-2" d="M59.22,44.94c5.42,13.77.1,28.23-11.6,36.7"/><path class="cls-2" d="M59.66,66.25c0,9.07,5.92,17,15.31,17.5"/><path class="cls-2" d="M62.37,76.24c2.37-6.57,7.43-9.37,13.31-7.07"/></svg>