<svg xmlns="http://www.w3.org/2000/svg" width="180" height="180" viewBox="0 0 180 180">
  <g fill="none" fill-rule="evenodd">
    <circle cx="90" cy="90" r="90" fill="#FBDFDD"/>
    <g transform="translate(46 46)">
      <path fill="#EF928E" fill-rule="nonzero" d="M60.49,57.84 C72,45.15 69.55,26.91 58,14.58 C51.8737475,7.98014121 43.325528,4.15745308 34.3221091,3.99145667 C25.3186903,3.82546026 16.6353701,7.33044978 10.27,13.7 C-2.83,26.75 -3.53,48.1 10.43,60.8 C22.32,71.63 41,73.35 54.13,63.72 L81.44,87.61 L87.8,81.73 L60.49,57.84 Z M51.65,56 C41.65,64.92 25.91,64.14 16.34,55 C6.27,45.38 6.45,29 16.34,19.35 C21.2712476,14.6188348 27.8928632,12.0612494 34.724101,12.2491789 C41.5553388,12.4371085 48.0263257,15.3548754 52.69,20.35 C62.08,30.4 62,46.71 51.65,56 Z"/>
      <path stroke="#00365F" stroke-linecap="round" stroke-linejoin="round" d="M10.27,10.1 C-2.83,23.1 -3.53,44.5 10.43,57.2 C22.32,68 41,69.75 54.13,60.12 L81.44,84 L87.8,78.12 L60.49,54.24 C72,41.55 69.55,23.31 58,11 C51.8765026,4.39745757 43.3298056,0.571111893 34.3263638,0.401342405 C25.3229219,0.231572917 16.6380519,3.73299904 10.27,10.1 Z"/>
      <path stroke="#00365F" stroke-linecap="round" stroke-linejoin="round" d="M51.65,52.42 C41.65,61.34 25.91,60.56 16.34,51.42 C6.27,41.8 6.45,25.42 16.34,15.77 C21.2712476,11.0388348 27.8928632,8.48124943 34.724101,8.66917894 C41.5553388,8.85710846 48.0263257,11.7748754 52.69,16.77 C62.08,26.8 62,43.11 51.65,52.42 Z"/>
    </g>
  </g>
</svg>
