<svg id="DESIGN" xmlns="http://www.w3.org/2000/svg" viewBox="0 0 120 120">
  <defs><style>.pred_one{fill:#ef928e;}.pred_two{fill:none;stroke:#00365f;stroke-linecap:round;stroke-linejoin:round;}</style></defs>
  <path class="pred_one" d="M76.49,73.84C88,61.15,85.55,42.91,74,30.58a33.14,33.14,0,0,0-47.73-.88c-13.1,13.05-13.8,34.4.16,47.1C38.32,87.63,57,89.35,70.13,79.72l27.31,23.89,6.36-5.88ZM67.65,72c-10,8.92-25.74,8.14-35.31-1-10.07-9.62-9.89-26,0-35.65a25.54,25.54,0,0,1,36.35,1C78.08,46.4,78,62.71,67.65,72Z"/><path class="pred_two" d="M26.27,26.1c-13.1,13-13.8,34.4.16,47.1C38.32,84,57,85.75,70.13,76.12L97.44,100l6.36-5.88L76.49,70.24C88,57.55,85.55,39.31,74,27A33.14,33.14,0,0,0,26.27,26.1Z"/><path class="pred_two" d="M67.65,68.42c-10,8.92-25.74,8.14-35.31-1-10.07-9.62-9.89-26,0-35.65a25.54,25.54,0,0,1,36.35,1C78.08,42.8,78,59.11,67.65,68.42Z"/>
</svg>