<svg id="DESIGN" xmlns="http://www.w3.org/2000/svg" viewBox="0 0 120 120"><defs><style>.cls-1,.cls-4{fill:#ef928e;}.cls-2{fill:#00365f;}.cls-3,.cls-5{fill:none;}.cls-3,.cls-4,.cls-5{stroke:#00365f;}.cls-3{stroke-miterlimit:10;}.cls-4,.cls-5{stroke-linecap:round;stroke-linejoin:round;}</style></defs><title>BiocICON_targeted</title><path class="cls-1" d="M58.6,17.77A46.19,46.19,0,1,1,12.42,64,46.18,46.18,0,0,1,58.6,17.77ZM95.55,64a37,37,0,1,0-36.95,37A36.95,36.95,0,0,0,95.55,64Z"/><path class="cls-1" d="M58.6,36.24A27.72,27.72,0,1,1,30.89,64,27.71,27.71,0,0,1,58.6,36.24ZM77.08,64A18.48,18.48,0,1,0,58.6,82.43,18.47,18.47,0,0,0,77.08,64Z"/><circle class="cls-2" cx="56.55" cy="62.93" r="9.24"/><circle class="cls-3" cx="56.55" cy="62.93" r="46.19"/><circle class="cls-3" cx="56.55" cy="62.93" r="36.95"/><circle class="cls-3" cx="56.55" cy="62.93" r="27.71"/><circle class="cls-3" cx="56.55" cy="62.93" r="18.48"/><circle class="cls-3" cx="56.55" cy="62.93" r="9.24"/><polygon class="cls-4" points="91.6 27.88 100.31 29.13 109.63 19.8 100.93 18.56 99.69 9.85 90.36 19.18 91.6 27.88"/><line class="cls-5" x1="56.04" y1="63.45" x2="91.6" y2="27.88"/></svg>