<svg xmlns="http://www.w3.org/2000/svg" width="180" height="180" viewBox="0 0 180 180">
  <g fill="none" fill-rule="evenodd">
    <circle cx="90" cy="90" r="90" fill="#FBDFDD"/>
    <g transform="translate(40 39)">
      <path fill="#EF928E" fill-rule="nonzero" d="M48.6,8.7699989 C74.1061244,8.76448756 94.7889405,29.4338875 94.7999828,54.9400101 C94.8110162,80.4461328 74.1460973,101.133426 48.6399776,101.149999 C23.133858,101.166552 2.4420886,80.5061155 2.41997289,55 C2.40672979,42.7436417 7.26624977,30.9847288 15.9281185,22.3134817 C24.5899871,13.6422347 36.3436345,8.7699989 48.6,8.7699989 L48.6,8.7699989 Z M85.5500339,55 C85.5500339,40.0303498 76.5298062,26.5356548 62.6977143,20.8116998 C48.8656224,15.0877448 32.9473472,18.2624828 22.3693655,28.8547785 C11.7913837,39.4470742 8.63817435,55.3696279 14.3808287,69.1939668 C20.1234831,83.0183057 33.6303635,92.0202293 48.6,92.000034 C58.4084185,92.000034 67.8143809,88.1002109 74.7452891,81.1599239 C81.6761974,74.2196368 85.5632726,64.8084095 85.5500339,55 Z"/>
      <path fill="#EF928E" fill-rule="nonzero" d="M48.6,27.2399982 C63.9054232,27.2344945 76.3189314,39.6345966 76.3299713,54.9400168 C76.3409965,70.245437 63.9453779,82.6634223 48.6399627,82.6799986 C33.3345475,82.6965416 20.9120867,70.3054082 20.8899548,55 C20.8767235,47.6421918 23.7902995,40.5811929 28.9883722,35.3737408 C34.1864449,30.1662886 41.2421798,27.2399982 48.6,27.2399982 L48.6,27.2399982 Z M67.0800681,55 C67.1002354,47.5210209 62.6105803,40.7672121 55.706704,37.8910985 C48.8028277,35.0149849 40.8460632,36.5836897 35.5504479,41.8649771 C30.2548326,47.1462644 28.6645764,55.0987496 31.5219749,62.0103928 C34.3793733,68.922036 41.1209936,73.4300028 48.6,73.4300028 C58.789002,73.4355404 67.0579354,65.1889796 67.0800681,55 Z"/>
      <circle cx="46.55" cy="53.93" r="9.24" fill="#00365F" fill-rule="nonzero"/>
      <circle cx="46.55" cy="53.93" r="46.19" stroke="#00365F"/>
      <circle cx="46.55" cy="53.93" r="36.95" stroke="#00365F"/>
      <circle cx="46.55" cy="53.93" r="27.71" stroke="#00365F"/>
      <circle cx="46.55" cy="53.93" r="18.48" stroke="#00365F"/>
      <circle cx="46.55" cy="53.93" r="9.24" stroke="#00365F"/>
      <polygon fill="#EF928E" fill-rule="nonzero" stroke="#00365F" stroke-linecap="round" stroke-linejoin="round" points="81.6 18.88 90.31 20.13 99.63 10.8 90.93 9.56 89.69 .85 80.36 10.18"/>
      <line x1="46.04" x2="81.6" y1="54.45" y2="18.88" stroke="#00365F" stroke-linecap="round" stroke-linejoin="round"/>
    </g>
  </g>
</svg>
