<svg id="DESIGN" xmlns="http://www.w3.org/2000/svg" viewBox="0 0 120 120"><defs><style>.tw-1{fill:#00365f;}</style></defs><title>BiocICON_twitter</title><path class="tw-1" d="M60,9.1A50.9,50.9,0,1,0,110.9,60,50.9,50.9,0,0,0,60,9.1ZM82.29,50.05c0,.5,0,1,0,1.49,0,15.21-11.58,32.75-32.73,32.75A32.48,32.48,0,0,1,32,79.11a22.52,22.52,0,0,0,2.74.17A23.08,23.08,0,0,0,49,74.35a11.52,11.52,0,0,1-10.74-8,11.91,11.91,0,0,0,2.17.2,11.52,11.52,0,0,0,3-.4A11.52,11.52,0,0,1,34.2,54.87v-.14a11.35,11.35,0,0,0,5.23,1.44A11.52,11.52,0,0,1,35.86,40.8a32.67,32.67,0,0,0,23.72,12,11.82,11.82,0,0,1-.31-2.62,11.52,11.52,0,0,1,19.92-7.88,23,23,0,0,0,7.3-2.79,11.51,11.51,0,0,1-5.06,6.37A23,23,0,0,0,88,44.1,23.07,23.07,0,0,1,82.29,50.05Z"/></svg>