<svg id="DESIGN" xmlns="http://www.w3.org/2000/svg" viewBox="0 0 120 120"><defs><style>.you-1{fill:#00365f;}</style></defs><title>BiocICON_youtube</title><path class="you-1" d="M60,9.1A50.9,50.9,0,1,0,110.9,60,50.9,50.9,0,0,0,60,9.1ZM91.65,73.28a12.49,12.49,0,0,1-1.08,3.93,7.83,7.83,0,0,1-6.28,4.39c-3.13.35-6.27.62-9.42.77-4.64.21-9.28.27-14.46.41-5-.13-10.48-.22-16-.44C41.62,82.22,38.8,82,36,81.6a8.27,8.27,0,0,1-7.44-7.21,86.49,86.49,0,0,1-1-14.72,89.28,89.28,0,0,1,.59-11.09A23,23,0,0,1,29,43.84a8,8,0,0,1,6.68-5.54,88.42,88.42,0,0,1,11-.84c4.33-.13,8.66-.23,13-.24,4,0,7.9.09,11.86.21,2.69.07,5.39.21,8.08.42a37.43,37.43,0,0,1,5.4.69,7.64,7.64,0,0,1,6.19,6.26,44,44,0,0,1,.93,6.65c.21,3.68.3,7.37.29,11A70.66,70.66,0,0,1,91.65,73.28Z"/><path class="you-1" d="M53.53,69.7,70.44,60,53.53,50.22Z"/></svg>